<?xml version="1.0" encoding="UTF-8"?>
<svg width="600" height="400" viewBox="0 0 600 400" xmlns="http://www.w3.org/2000/svg">
    <!-- Background Elements -->
    <circle cx="300" cy="200" r="150" fill="#E3F2FD" opacity="0.5"/>
    <circle cx="320" cy="180" r="120" fill="#BBDEFB" opacity="0.5"/>
    
    <!-- Career Ladder -->
    <path d="M 200 350 L 400 150" stroke="#1565C0" stroke-width="8" stroke-linecap="round"/>
    <path d="M 200 300 L 220 300 M 250 250 L 270 250 M 300 200 L 320 200 M 350 150 L 370 150" 
          stroke="#1565C0" stroke-width="8" stroke-linecap="round"/>
    
    <!-- Success Icons -->
    <g transform="translate(350,120)">
        <!-- Star -->
        <path d="M 0 -20 L 5 -5 L 20 -5 L 8 5 L 12 20 L 0 12 L -12 20 L -8 5 L -20 -5 L -5 -5 Z" 
              fill="#FFC107"/>
    </g>
    
    <!-- Person Figure -->
    <g transform="translate(200,300)">
        <!-- Head -->
        <circle cx="0" cy="-40" r="15" fill="#1976D2"/>
        <!-- Body -->
        <path d="M 0 -25 L 0 10 M -15 -10 L 15 -10 M -10 30 L 0 10 L 10 30" 
              stroke="#1976D2" stroke-width="8" stroke-linecap="round" stroke-linejoin="round"/>
    </g>
    
    <!-- Growth Chart -->
    <g transform="translate(350,250)">
        <path d="M 0 0 L 20 -20 L 40 -30 L 60 -50" 
              stroke="#4CAF50" stroke-width="4" fill="none" stroke-linecap="round"/>
        <circle cx="60" cy="-50" r="6" fill="#4CAF50"/>
    </g>
    
    <!-- Decorative Elements -->
    <g transform="translate(450,100)">
        <circle cx="0" cy="0" r="5" fill="#2196F3"/>
        <circle cx="20" cy="20" r="3" fill="#2196F3"/>
        <circle cx="-10" cy="30" r="4" fill="#2196F3"/>
    </g>
</svg> 